<svg xmlns="http://www.w3.org/2000/svg" xmlns:xlink="http://www.w3.org/1999/xlink">
<defs>
<path id="a" d="M134.78 76.8l-13.08-6.6 13.08.01m4.22 0v-3.86c0-2.2-.02-4-.54-6.15-1.54-6.37-9.05-9.5-15.23-7.7a11.99 11.99 0 0 0-4.56 2.42c-.1.07-.17.14-.25.22a10.28 10.28 0 0 0-2.88 4.13 4.77 4.77 0 0 0 .22 4.02c.78 1.33 2.61 1.74 4.01 1.23 1.2-.43 2.03-1.6 2.04-2.6.02-1.6-.43-1.93-1-2.64.08-.12.87-1.67 3.3-2.5 3.24-1.1 6.7-.41 8.92 2.2 1.66 1.96 1.81 4.31 1.74 6.77l-11.88.1-7.89.06v4.3c0 .89.55 2.05 1.35 2.48L133.92 82H139V70.2"/>
</defs>
<symbol id="shape" viewBox="0 0 24 30"><use fill="#ffbab8" xlink:href="#a" transform="translate(-115 -52)"/></symbol>
<symbol id="star" viewBox="0 0 64 64"><circle cx="32" cy="32" fill="#C75C5C" r="32"/><path d="M52.872 28.063a2.635 2.635 0 0 0-2.121-1.79l-11.327-1.645-5.067-10.263a2.628 2.628 0 0 0-4.714 0l-5.064 10.263-11.329 1.645a2.627 2.627 0 0 0-2.121 1.79 2.623 2.623 0 0 0 .665 2.694l8.197 7.99-1.934 11.283a2.63 2.63 0 0 0 2.589 3.072c.418 0 .838-.1 1.222-.302L32 47.473 42.132 52.8a2.624 2.624 0 0 0 2.767-.2 2.632 2.632 0 0 0 1.046-2.57L44.01 38.746l8.197-7.99a2.63 2.63 0 0 0 .665-2.693z" fill="#231F20" opacity=".2"/><path d="M52.872 26.063a2.635 2.635 0 0 0-2.121-1.79l-11.327-1.645-5.067-10.263a2.628 2.628 0 0 0-4.714 0l-5.064 10.263-11.329 1.645a2.627 2.627 0 0 0-2.121 1.79 2.623 2.623 0 0 0 .665 2.694l8.197 7.99-1.934 11.283a2.63 2.63 0 0 0 2.589 3.072c.418 0 .838-.1 1.222-.302L32 45.473 42.132 50.8a2.624 2.624 0 0 0 2.767-.2 2.632 2.632 0 0 0 1.046-2.57L44.01 36.746l8.197-7.99a2.63 2.63 0 0 0 .665-2.693z" fill="#F5CF87"/></symbol>
</svg>