<svg xmlns="http://www.w3.org/2000/svg" xmlns:xlink="http://www.w3.org/1999/xlink" width="24" height="30" viewBox="0 0 24 30"><defs><path id="ggkaa" d="M134.78 76.8l-13.08-6.6 13.08.01m4.22 0v-3.86c0-2.2-.02-4-.54-6.15-1.54-6.37-9.05-9.5-15.23-7.7a11.99 11.99 0 0 0-4.56 2.42c-.1.07-.17.14-.25.22a10.28 10.28 0 0 0-2.88 4.13 4.77 4.77 0 0 0 .22 4.02c.78 1.33 2.61 1.74 4.01 1.23 1.2-.43 2.03-1.6 2.04-2.6.02-1.6-.43-1.93-1-2.64.08-.12.87-1.67 3.3-2.5 3.24-1.1 6.7-.41 8.92 2.2 1.66 1.96 1.81 4.31 1.74 6.77l-11.88.1-7.89.06v4.3c0 .89.55 2.05 1.35 2.48L133.92 82H139V70.2"/></defs><g><g transform="translate(-115 -52)"><use fill="#ffbab8" xlink:href="#ggkaa"/></g></g></svg>